<svg version="1.1" id="Layer_1" xmlns="http://www.w3.org/2000/svg" xmlns:xlink="http://www.w3.org/1999/xlink" x="0px" y="0px"
	 width="100%" viewBox="0 0 512 512" enable-background="new 0 0 512 512" xml:space="preserve">
<path fill="#FFFFFF" opacity="1.000000" stroke="none" 
	d="
M272.000000,1.000000 
	C352.310272,1.000000 432.620575,1.000000 512.965454,1.000000 
	C512.965454,171.594635 512.965454,342.189301 512.965454,512.891968 
	C342.454376,512.891968 171.908676,512.891968 1.000000,512.891968 
	C1.000000,432.977722 1.000000,352.954895 1.353963,272.593964 
	C3.505208,276.369171 4.878566,280.738861 7.181325,284.546478 
	C13.441156,294.897064 21.691574,303.652863 31.422564,310.715363 
	C39.220722,316.375122 47.755775,321.019531 56.120766,326.433472 
	C60.595440,328.901459 64.913162,331.050507 69.252625,333.210388 
	C67.683098,337.429138 65.888374,340.952820 65.071480,344.690216 
	C62.513851,356.391663 60.386250,368.186340 57.975296,379.920898 
	C55.775120,390.629578 57.400215,401.093231 59.885571,411.476166 
	C64.395027,430.315033 76.227951,442.737305 94.349350,450.008209 
	C98.851814,451.333862 102.966644,453.281403 107.159637,453.467468 
	C115.765297,453.849335 124.412834,453.287506 133.487213,453.066254 
	C143.287277,451.290253 152.643250,449.562164 162.382141,447.900879 
	C166.035980,446.698181 169.405106,445.631805 172.553833,444.109558 
	C176.808441,442.052673 179.376846,443.146515 180.971786,447.532288 
	C181.788208,449.777252 183.086716,451.846924 184.195801,454.347778 
	C192.607590,469.586212 201.580261,484.024475 215.089767,495.425720 
	C216.983627,497.158966 218.684464,498.664032 220.517105,499.986359 
	C230.514709,507.200104 241.151947,512.650208 254.454727,511.906586 
	C269.560059,512.694397 282.125732,507.679657 293.353394,497.979126 
	C295.557678,496.280548 297.564301,494.842896 299.318848,493.144775 
	C312.984039,479.919128 322.893555,464.115509 331.000671,446.647949 
	C332.427490,443.063049 334.279999,442.880493 337.662659,443.865051 
	C348.004913,446.875275 358.538910,449.226776 369.407349,451.919983 
	C372.224365,452.361084 374.626129,452.767517 377.041412,453.063934 
	C389.827484,454.633240 402.563660,455.271912 415.357422,450.793884 
	C416.713165,450.206268 417.660797,449.527130 418.714905,449.131927 
	C431.351807,444.394226 440.792664,436.058197 446.979065,424.070160 
	C450.600281,417.053040 453.104248,409.754944 453.163208,401.695129 
	C453.221222,393.774170 454.964203,385.632751 453.652496,377.985138 
	C451.248749,363.970184 447.318787,350.199524 443.602264,336.441223 
	C442.810944,333.511749 443.609863,332.668030 445.810333,331.584869 
	C449.280792,329.876587 452.640991,327.944336 456.409729,326.055176 
	C466.548859,319.353302 476.326111,312.703064 486.408783,305.921631 
	C490.625092,301.546234 494.742188,297.472168 498.409973,293.027283 
	C511.899872,276.679108 515.620544,258.190063 509.409851,237.967377 
	C505.486237,225.191727 496.966217,215.468170 486.905243,206.574677 
	C476.803558,199.378235 466.835571,192.488113 456.585876,185.344238 
	C452.784180,183.378540 449.285675,181.620392 445.736786,179.970596 
	C443.302856,178.839111 442.692505,177.594711 443.556641,174.668839 
	C446.675201,164.109802 449.492706,153.449463 452.028900,142.733887 
	C455.339996,128.744324 455.311188,114.511940 451.840149,100.683517 
	C446.452606,79.219612 433.052216,65.066872 410.819061,59.539108 
	C406.362244,58.775326 402.044678,58.730057 397.901825,57.856384 
	C387.019928,55.561543 376.542969,58.279175 365.547180,59.934921 
	C355.668884,62.650997 346.172974,65.218681 336.755249,68.046707 
	C334.275452,68.791367 332.470581,68.949753 331.208160,65.966049 
	C323.004456,47.735493 313.107971,31.078131 297.968140,17.638824 
	C290.422241,9.980197 281.589294,4.891806 272.000000,1.000000 
z"/>
<path fill="#FFFFFF" opacity="1.000000" stroke="none" 
	d="
M0.999999,239.000000 
	C1.000000,159.739624 1.000000,80.479240 1.000000,1.000000 
	C80.020760,1.000000 159.041718,1.000000 238.408112,1.346349 
	C227.126114,5.921005 217.211182,12.676411 208.645813,22.022842 
	C195.613617,36.007458 186.292419,52.041107 178.653030,68.869553 
	C176.853867,68.485199 175.448624,68.185005 173.857834,67.555779 
	C172.753372,66.955185 171.845856,66.634171 170.913818,66.419586 
	C159.956848,63.896996 148.996201,61.390358 137.808167,58.524330 
	C127.989906,58.112686 118.355049,57.477345 108.826950,58.217087 
	C103.119537,58.660194 97.579048,61.253414 91.586975,62.935097 
	C78.063316,67.870018 68.823097,77.312057 63.306808,89.691666 
	C55.318302,107.619408 55.579857,126.548630 59.819576,145.408539 
	C62.324432,156.551086 65.479286,167.547531 68.256432,178.279633 
	C60.010647,183.039185 51.486897,187.959198 42.606655,192.938690 
	C39.864826,194.662292 37.279209,196.103241 35.130764,198.031326 
	C27.968029,204.459381 20.272820,210.479477 14.105518,217.775040 
	C8.796649,224.055099 5.298660,231.865967 0.999999,239.000000 
z"/>
<path fill="#03528B" opacity="1.000000" stroke="none" 
	d="
M0.999999,239.468658 
	C5.298660,231.865967 8.796649,224.055099 14.105518,217.775040 
	C20.272820,210.479477 27.968029,204.459381 35.130764,198.031326 
	C37.279209,196.103241 39.864826,194.662292 42.664452,193.361832 
	C43.384029,200.428070 43.689331,207.130676 43.681046,213.976410 
	C35.379585,220.709900 27.880993,227.751678 22.659698,236.855316 
	C18.779379,243.620895 16.345484,251.087967 17.218193,258.701172 
	C18.700153,271.629303 26.033525,281.780609 35.616802,290.122650 
	C42.446350,296.067657 49.875736,301.323578 56.978676,307.309082 
	C56.601219,313.858948 56.282516,319.986725 55.963810,326.114502 
	C47.755775,321.019531 39.220722,316.375122 31.422564,310.715363 
	C21.691574,303.652863 13.441156,294.897064 7.181325,284.546478 
	C4.878566,280.738861 3.505208,276.369171 1.353963,272.127930 
	C1.000000,261.312439 1.000000,250.624878 0.999999,239.468658 
z"/>
<path fill="#027AA1" opacity="1.000000" stroke="none" 
	d="
M208.957794,21.883762 
	C217.211182,12.676411 227.126114,5.921005 238.876770,1.346349 
	C244.022095,1.000000 249.044189,1.000000 254.533142,1.466261 
	C254.998978,6.899281 254.997955,11.866039 254.582565,16.903229 
	C242.387466,17.848581 233.100586,24.018969 224.965225,31.760569 
	C219.125320,37.317829 214.314926,43.956940 209.031342,49.637844 
	C208.997574,40.069431 208.977676,30.976597 208.957794,21.883762 
z"/>
<path fill="#0283A6" opacity="1.000000" stroke="none" 
	d="
M254.996933,16.832798 
	C254.997955,11.866039 254.998978,6.899281 255.000000,1.466261 
	C260.354919,1.000000 265.709869,1.000000 271.532410,1.000000 
	C281.589294,4.891806 290.422241,9.980197 297.665039,17.888548 
	C297.001221,23.798389 296.550842,29.151154 295.972778,34.490093 
	C295.770630,36.357220 295.254059,38.190300 294.574646,39.907639 
	C292.865356,38.364777 291.378967,37.026085 290.072998,35.529949 
	C280.745911,24.844742 269.274536,18.215015 254.996933,16.832798 
z"/>
<path fill="#01A1B7" opacity="1.000000" stroke="none" 
	d="
M411.037933,59.880066 
	C433.052216,65.066872 446.452606,79.219612 451.840149,100.683517 
	C455.311188,114.511940 455.339996,128.744324 452.028900,142.733887 
	C449.492706,153.449463 446.675201,164.109802 443.556641,174.668839 
	C442.692505,177.594711 443.302856,178.839111 445.736786,179.970596 
	C449.285675,181.620392 452.784180,183.378540 456.167053,185.577591 
	C455.674164,192.416107 455.318359,198.767517 454.600464,205.060730 
	C447.986725,201.707855 441.735138,198.413177 435.408752,195.079086 
	C433.150909,200.127762 431.056946,204.809952 428.830017,209.789459 
	C430.684906,210.750671 432.292999,211.502884 433.822144,212.391022 
	C439.264282,215.551743 444.679565,218.758743 449.790344,222.233093 
	C449.305054,229.052780 449.134399,235.587585 448.609619,242.063324 
	C438.518250,236.707397 428.781036,231.410538 418.983826,225.691422 
	C418.615875,223.004456 418.103821,220.745850 418.036133,218.473999 
	C417.776215,209.747299 417.658752,201.016327 417.350098,191.918335 
	C421.831970,178.952820 426.774536,166.462662 430.986420,153.730774 
	C435.763062,139.291733 437.488312,124.425011 434.996979,109.254990 
	C432.604980,94.689606 425.321594,83.984215 410.997925,78.375412 
	C411.011963,71.905037 411.024933,65.892555 411.037933,59.880066 
z"/>
<path fill="#01A1B7" opacity="1.000000" stroke="none" 
	d="
M456.047791,326.106873 
	C452.640991,327.944336 449.280792,329.876587 445.810333,331.584869 
	C443.609863,332.668030 442.810944,333.511749 443.602264,336.441223 
	C447.318787,350.199524 451.248749,363.970184 453.652496,377.985138 
	C454.964203,385.632751 453.221222,393.774170 453.163208,401.695129 
	C453.104248,409.754944 450.600281,417.053040 446.979065,424.070160 
	C440.792664,436.058197 431.351807,444.394226 418.714905,449.131927 
	C417.660797,449.527130 416.713165,450.206268 415.357910,450.336578 
	C414.628967,443.931244 414.258148,437.942841 414.051178,431.639526 
	C429.114716,424.123260 434.770447,411.102631 435.922211,395.700104 
	C437.373352,376.293945 432.026733,358.050507 425.408417,340.100433 
	C424.181366,340.471649 423.109406,340.795929 422.026062,340.644196 
	C422.009277,334.167694 422.003845,328.167206 422.333008,322.001648 
	C425.161560,320.688599 427.671539,319.573944 430.146637,318.386566 
	C438.618988,314.322235 447.079102,310.232391 455.638428,306.610352 
	C455.837952,313.414520 455.942871,319.760681 456.047791,326.106873 
z"/>
<path fill="#035B90" opacity="1.000000" stroke="none" 
	d="
M56.120766,326.433472 
	C56.282516,319.986725 56.601219,313.858948 57.346359,307.362579 
	C68.513901,312.051910 79.254997,317.109802 89.997238,322.601929 
	C89.665085,328.968170 89.331795,334.900177 88.646400,340.900208 
	C87.194565,341.506744 85.373421,341.804321 85.101204,342.619232 
	C79.180107,360.345032 74.007805,378.123383 75.869583,397.286621 
	C77.206207,411.044556 82.368340,422.142395 94.026535,430.357635 
	C94.008644,437.166382 94.002869,443.499573 93.997101,449.832733 
	C76.227951,442.737305 64.395027,430.315033 59.885571,411.476166 
	C57.400215,401.093231 55.775120,390.629578 57.975296,379.920898 
	C60.386250,368.186340 62.513851,356.391663 65.071480,344.690216 
	C65.888374,340.952820 67.683098,337.429138 69.252625,333.210388 
	C64.913162,331.050507 60.595440,328.901459 56.120766,326.433472 
z"/>
<path fill="#026F9B" opacity="1.000000" stroke="none" 
	d="
M184.167358,453.995819 
	C183.086716,451.846924 181.788208,449.777252 180.971786,447.532288 
	C179.376846,443.146515 176.808441,442.052673 172.553833,444.109558 
	C169.405106,445.631805 166.035980,446.698181 162.382462,447.444672 
	C161.666336,441.003052 161.332809,435.084412 161.381348,429.086212 
	C164.931732,427.818909 168.100067,426.631195 171.241425,425.453613 
	C170.666458,423.456360 170.350632,422.218475 169.954849,421.006683 
	C166.788147,411.310852 166.783508,411.312378 157.026581,412.642822 
	C157.009399,406.167084 157.003601,400.167236 157.373138,394.087494 
	C159.702591,393.309998 161.083694,393.040985 160.207108,389.868408 
	C158.045151,382.043854 156.787949,373.969330 155.550110,365.889221 
	C156.288773,364.264709 156.923996,362.751373 156.951691,361.227020 
	C157.074890,354.446167 157.024170,347.662201 157.465363,340.930725 
	C162.734299,341.654968 167.579620,342.291229 172.412704,343.009827 
	C178.627823,343.933868 184.833130,344.923920 191.029907,346.361328 
	C191.011444,348.794983 191.110886,350.760071 190.978745,352.709412 
	C190.677032,357.160034 190.261948,361.602997 189.559814,365.862732 
	C188.555893,364.811920 187.973145,363.294434 187.199860,363.190155 
	C182.567642,362.565674 177.891556,362.266449 172.549881,361.798553 
	C173.629913,367.083649 174.257568,371.582550 175.487381,375.910400 
	C179.483719,389.973969 183.700470,403.974915 187.449585,418.108307 
	C186.711212,419.733459 186.064545,421.247131 186.047928,422.767639 
	C185.950363,431.688690 186.084000,440.612946 185.917603,449.531982 
	C185.889648,451.030273 184.778183,452.508392 184.167358,453.995819 
z"/>
<path fill="#0189A9" opacity="1.000000" stroke="none" 
	d="
M330.833435,446.974091 
	C322.893555,464.115509 312.984039,479.919128 299.318848,493.144775 
	C297.564301,494.842896 295.557678,496.280548 293.341705,497.502747 
	C292.664642,489.737396 292.313690,482.308105 292.096252,474.564697 
	C292.960907,473.193909 293.601929,472.059357 294.437042,471.092499 
	C303.612091,460.469757 310.208588,448.302612 316.122803,435.509644 
	C311.265228,433.141754 306.644440,430.889282 301.851715,428.553009 
	C299.031189,433.976379 296.432556,438.973083 293.572876,443.651550 
	C293.220184,429.848267 293.128601,416.363190 293.363068,403.026245 
	C299.355377,406.209961 304.981689,409.323364 310.698547,412.260498 
	C317.102478,415.550629 323.588409,418.681152 330.026733,422.357056 
	C330.287689,430.880035 330.560577,438.927063 330.833435,446.974091 
z"/>
<path fill="#0189A9" opacity="1.000000" stroke="none" 
	d="
M294.881104,40.038933 
	C295.254059,38.190300 295.770630,36.357220 295.972778,34.490093 
	C296.550842,29.151154 297.001221,23.798389 297.804932,18.201336 
	C313.107971,31.078131 323.004456,47.735493 331.109375,66.483673 
	C331.091919,74.592232 331.065460,81.855659 330.869446,89.434555 
	C320.168762,94.849937 309.637665,99.949867 298.791443,104.765503 
	C298.667145,95.618164 298.857910,86.755104 299.361389,78.049484 
	C300.460083,79.767044 301.246033,81.327164 302.094910,83.012184 
	C306.989044,80.487656 311.487244,78.167351 316.042999,75.817352 
	C313.779663,71.294312 312.028900,67.112076 309.698822,63.282272 
	C304.924103,55.434402 299.838623,47.775585 294.881104,40.038933 
z"/>
<path fill="#00ACBD" opacity="1.000000" stroke="none" 
	d="
M487.038971,206.881027 
	C496.966217,215.468170 505.486237,225.191727 509.409851,237.967377 
	C515.620544,258.190063 511.899872,276.679108 498.409973,293.027283 
	C494.742188,297.472168 490.625092,301.546234 486.094360,305.636292 
	C485.316345,300.680786 485.255341,295.873535 484.964783,291.080200 
	C484.779907,288.029602 484.254395,284.999603 484.027161,281.643494 
	C497.157501,264.818176 497.521332,248.365204 485.431091,231.051544 
	C485.726013,228.693039 485.886749,226.886459 485.993774,225.076721 
	C486.352478,219.012100 486.692108,212.946350 487.038971,206.881027 
z"/>
<path fill="#02739D" opacity="1.000000" stroke="none" 
	d="
M184.195801,454.347778 
	C184.778183,452.508392 185.889648,451.030273 185.917603,449.531982 
	C186.084000,440.612946 185.950363,431.688690 186.047928,422.767639 
	C186.064545,421.247131 186.711212,419.733459 187.615143,418.446655 
	C195.891510,438.017700 204.777161,456.719940 217.807602,473.229614 
	C217.330536,474.606964 217.131714,475.714081 217.005005,476.829407 
	C216.312759,482.922852 215.638229,489.018341 214.957596,495.113129 
	C201.580261,484.024475 192.607590,469.586212 184.195801,454.347778 
z"/>
<path fill="#019AB3" opacity="1.000000" stroke="none" 
	d="
M413.887329,431.954407 
	C414.258148,437.942841 414.628967,443.931244 414.999268,450.377014 
	C402.563660,455.271912 389.827484,454.633240 377.041412,453.063934 
	C374.626129,452.767517 372.224365,452.361084 369.407990,451.463135 
	C368.999054,445.335754 368.998444,439.750610 369.415314,434.093475 
	C384.691589,437.040466 399.420105,437.281586 413.887329,431.954407 
z"/>
<path fill="#0197B1" opacity="1.000000" stroke="none" 
	d="
M410.819061,59.539108 
	C411.024933,65.892555 411.011963,71.905037 410.619446,78.313332 
	C401.486115,76.120041 392.708038,74.292740 383.452118,75.904358 
	C377.696564,76.906494 371.820099,77.214203 365.998596,77.375961 
	C365.985809,71.240181 365.972321,65.562012 365.958801,59.883850 
	C376.542969,58.279175 387.019928,55.561543 397.901825,57.856384 
	C402.044678,58.730057 406.362244,58.775326 410.819061,59.539108 
z"/>
<path fill="#0283A6" opacity="1.000000" stroke="none" 
	d="
M291.962738,474.878815 
	C292.313690,482.308105 292.664642,489.737396 293.027283,497.643066 
	C282.125732,507.679657 269.560059,512.694397 254.455475,511.449829 
	C253.998642,505.335327 253.998016,499.751129 254.442657,494.093567 
	C261.967468,494.567596 268.580261,492.689117 274.289673,488.815369 
	C280.482056,484.613983 286.096344,479.560638 291.962738,474.878815 
z"/>
<path fill="#027BA1" opacity="1.000000" stroke="none" 
	d="
M253.997391,494.166901 
	C253.998016,499.751129 253.998642,505.335327 253.998535,511.376343 
	C241.151947,512.650208 230.514709,507.200104 220.517105,499.986359 
	C218.684464,498.664032 216.983627,497.158966 215.089767,495.425720 
	C215.638229,489.018341 216.312759,482.922852 217.005005,476.829407 
	C217.131714,475.714081 217.330536,474.606964 218.122498,473.364014 
	C222.062363,476.549194 225.128510,480.169067 228.741043,483.120117 
	C236.082138,489.116882 244.068588,493.945435 253.997391,494.166901 
z"/>
<path fill="#0190AD" opacity="1.000000" stroke="none" 
	d="
M368.997864,434.165466 
	C368.998444,439.750610 368.999054,445.335754 368.998962,451.377716 
	C358.538910,449.226776 348.004913,446.875275 337.662659,443.865051 
	C334.279999,442.880493 332.427490,443.063049 331.000702,446.647949 
	C330.560577,438.927063 330.287689,430.880035 330.405701,422.415009 
	C343.530334,426.053162 356.264099,430.109314 368.997864,434.165466 
z"/>
<path fill="#026495" opacity="1.000000" stroke="none" 
	d="
M94.349350,450.008209 
	C94.002869,443.499573 94.008644,437.166382 94.399025,430.413452 
	C97.144104,431.004059 99.476059,432.088287 101.870018,433.011841 
	C111.958107,436.903809 122.494522,436.060455 132.975983,436.351990 
	C133.005508,442.256348 133.024323,447.685242 133.043137,453.114166 
	C124.412834,453.287506 115.765297,453.849335 107.159637,453.467468 
	C102.966644,453.281403 98.851814,451.333862 94.349350,450.008209 
z"/>
<path fill="#00A8BA" opacity="1.000000" stroke="none" 
	d="
M486.905243,206.574677 
	C486.692108,212.946350 486.352478,219.012100 485.993774,225.076721 
	C485.886749,226.886459 485.726013,228.693039 485.307739,230.671967 
	C478.357605,224.730972 471.779724,218.516266 464.981171,212.553177 
	C461.865265,209.820129 458.315521,207.581680 454.962555,205.118927 
	C455.318359,198.767517 455.674164,192.416107 456.448792,185.831360 
	C466.835571,192.488113 476.803558,199.378235 486.905243,206.574677 
z"/>
<path fill="#00A8BA" opacity="1.000000" stroke="none" 
	d="
M483.881622,281.960388 
	C484.254395,284.999603 484.779907,288.029602 484.964783,291.080200 
	C485.255341,295.873535 485.316345,300.680786 485.788940,305.767487 
	C476.326111,312.703064 466.548859,319.353302 456.409698,326.055176 
	C455.942871,319.760681 455.837952,313.414520 455.830414,306.352051 
	C466.010773,298.647217 476.232300,291.822327 483.881622,281.960388 
z"/>
<path fill="#0190AD" opacity="1.000000" stroke="none" 
	d="
M365.547180,59.934921 
	C365.972321,65.562012 365.985809,71.240181 365.608154,77.455345 
	C353.824341,81.701256 342.431641,85.410172 331.039001,89.119087 
	C331.065460,81.855659 331.091919,74.592232 331.217163,66.811180 
	C332.470581,68.949753 334.275452,68.791367 336.755249,68.046707 
	C346.172974,65.218681 355.668884,62.650997 365.547180,59.934921 
z"/>
<path fill="#026C99" opacity="1.000000" stroke="none" 
	d="
M133.487213,453.066254 
	C133.024323,447.685242 133.005508,442.256348 133.188797,436.003052 
	C142.593704,433.174377 151.796494,431.170074 160.999283,429.165802 
	C161.332809,435.084412 161.666336,441.003052 161.999542,447.377869 
	C152.643250,449.562164 143.287277,451.290253 133.487213,453.066254 
z"/>
<path fill="#026C99" opacity="1.000000" stroke="none" 
	d="
M138.036530,58.879520 
	C148.996201,61.390358 159.956848,63.896996 170.913818,66.419586 
	C171.845856,66.634171 172.753372,66.955185 173.844971,68.031830 
	C174.011917,88.309616 173.956558,107.782654 174.092361,127.254372 
	C174.103516,128.853134 175.415131,130.442841 176.067596,132.449921 
	C172.354553,153.983383 167.969147,175.011215 165.268692,196.253265 
	C163.113861,213.203278 162.322906,230.408768 162.185043,247.510986 
	C162.034622,266.170319 163.249542,284.845428 164.157211,303.499664 
	C164.231476,305.025787 166.247391,307.120483 167.838776,307.757355 
	C170.344711,308.760132 173.256546,308.748657 175.997650,309.623596 
	C175.998627,315.664856 175.998505,321.249115 175.565338,326.904388 
	C172.382965,326.649536 169.601440,326.489807 166.890656,325.964844 
	C160.242706,324.677368 153.627380,323.221466 146.999298,321.375549 
	C147.000061,277.000732 147.000458,233.083694 147.356796,188.951996 
	C148.483582,183.575912 149.254456,178.414520 150.100876,172.747162 
	C144.886505,173.627045 140.461960,174.373657 136.025879,174.645142 
	C136.008957,168.502274 136.003601,162.834503 136.358917,156.983002 
	C141.127960,155.864548 145.602127,155.152283 149.909866,153.877609 
	C151.472748,153.415161 153.504761,151.815384 153.846191,150.382706 
	C156.355530,139.852859 158.490509,129.233810 160.837173,118.202171 
	C152.669403,115.779198 144.333115,113.306229 135.997864,110.375954 
	C135.998306,104.334663 135.997665,98.750679 136.409790,93.092163 
	C146.578995,95.413574 156.335419,97.809525 166.378906,100.275978 
	C167.886948,95.798988 169.455963,91.140976 171.213577,85.923050 
	C160.318268,81.493279 149.345322,78.518387 137.997391,76.375153 
	C138.011230,70.238220 138.023880,64.558868 138.036530,58.879520 
z"/>
<path fill="#035B90" opacity="1.000000" stroke="none" 
	d="
M43.994633,213.833267 
	C43.689331,207.130676 43.384029,200.428070 43.020935,193.302338 
	C51.486897,187.959198 60.010647,183.039185 68.256432,178.279633 
	C65.479286,167.547531 62.324432,156.551086 59.819576,145.408539 
	C55.579857,126.548630 55.318302,107.619408 63.306808,89.691666 
	C68.823097,77.312057 78.063316,67.870018 91.597778,63.410774 
	C92.336655,69.926605 92.688156,76.021614 92.906593,82.428131 
	C86.722893,87.308350 81.404213,92.337395 78.909286,99.915611 
	C73.737175,115.625671 74.539520,131.406235 78.635010,146.999313 
	C81.820480,159.127594 86.201004,170.941986 89.881035,183.286469 
	C89.474457,185.459335 89.040245,187.240662 89.031624,189.024033 
	C88.970764,201.626633 88.997269,214.229675 88.667015,226.987610 
	C83.102692,230.019791 77.727219,232.672211 72.664627,235.826767 
	C65.076401,240.555054 57.338696,245.289536 52.558052,253.186615 
	C51.686420,254.626465 51.803242,257.813812 52.835281,259.040863 
	C55.892124,262.675201 59.271832,266.272186 63.184120,268.904602 
	C71.583443,274.556152 80.395714,279.594025 88.874588,285.275635 
	C88.473015,291.722931 88.235764,297.777710 87.637802,303.794128 
	C80.375740,300.232605 73.367966,296.901184 66.597275,293.142670 
	C55.690605,287.088165 45.497105,280.013672 38.216454,269.620697 
	C34.676395,264.567352 32.364811,259.152252 33.744953,252.459564 
	C36.148670,240.803299 44.147434,233.437653 53.032600,227.150024 
	C62.425095,220.503403 72.618698,214.988831 82.406685,209.013733 
	C80.466713,204.846802 78.380951,200.366714 76.228470,195.743317 
	C64.158813,199.908325 54.115974,206.941376 43.994633,213.833267 
z"/>
<path fill="#02739D" opacity="1.000000" stroke="none" 
	d="
M176.122498,132.036743 
	C175.415131,130.442841 174.103516,128.853134 174.092361,127.254372 
	C173.956558,107.782654 174.011917,88.309616 174.030518,68.360855 
	C175.448624,68.185005 176.853867,68.485199 178.653030,68.869553 
	C186.292419,52.041107 195.613617,36.007458 208.645813,22.022842 
	C208.977676,30.976597 208.997574,40.069431 209.004379,49.994583 
	C199.802612,65.368675 192.340027,80.748383 186.989014,97.097542 
	C183.195557,108.687881 179.732834,120.386467 176.122498,132.036743 
z"/>
<path fill="#026495" opacity="1.000000" stroke="none" 
	d="
M93.039658,82.116631 
	C92.688156,76.021614 92.336655,69.926605 91.974342,63.355911 
	C97.579048,61.253414 103.119537,58.660194 108.826950,58.217087 
	C118.355049,57.477345 127.989906,58.112686 137.808167,58.524330 
	C138.023880,64.558868 138.011230,70.238220 137.577194,76.434677 
	C131.706223,76.300659 126.272446,75.403275 120.803604,75.052048 
	C110.835945,74.411888 101.859734,78.044212 93.039658,82.116631 
z"/>
<path fill="#FFFFFF" opacity="1.000000" stroke="none" 
	d="
M43.681046,213.976410 
	C54.115974,206.941376 64.158813,199.908325 76.228470,195.743317 
	C78.380951,200.366714 80.466713,204.846802 82.406685,209.013733 
	C72.618698,214.988831 62.425095,220.503403 53.032600,227.150024 
	C44.147434,233.437653 36.148670,240.803299 33.744953,252.459564 
	C32.364811,259.152252 34.676395,264.567352 38.216454,269.620697 
	C45.497105,280.013672 55.690605,287.088165 66.597275,293.142670 
	C73.367966,296.901184 80.375740,300.232605 87.974327,303.957153 
	C99.780449,308.050110 110.889336,311.941681 122.385468,315.914246 
	C130.848114,317.941254 138.923523,319.887299 146.998932,321.833344 
	C153.627380,323.221466 160.242706,324.677368 166.890656,325.964844 
	C169.601440,326.489807 172.382965,326.649536 175.934937,327.095703 
	C189.823807,328.755005 202.910049,330.293976 216.458221,331.906860 
	C231.945908,332.264526 246.971619,332.548248 262.460449,332.905884 
	C276.281677,332.264282 289.639771,331.548798 303.439056,330.906433 
	C311.537292,330.303497 319.220245,329.834473 326.842682,328.881409 
	C332.269531,328.202850 337.614899,326.872681 343.416870,325.906250 
	C347.977173,325.319702 352.169128,324.886810 356.246399,323.953186 
	C364.529327,322.056488 372.750244,319.889221 381.396851,317.904938 
	C392.879120,314.356018 403.961273,310.735565 415.421387,307.058838 
	C426.198853,301.946533 436.598389,296.890533 447.344482,291.803345 
	C449.201508,290.835144 450.777863,289.988708 452.211487,288.946014 
	C460.390472,282.997406 468.630249,277.127838 474.176819,268.340027 
	C477.851074,262.518616 479.599945,256.259125 477.137390,249.735809 
	C472.196625,236.647461 461.889526,228.517624 450.105011,221.948227 
	C444.679565,218.758743 439.264282,215.551743 433.822144,212.391022 
	C432.292999,211.502884 430.684906,210.750671 428.830017,209.789459 
	C431.056946,204.809952 433.150909,200.127762 435.408752,195.079086 
	C441.735138,198.413177 447.986725,201.707855 454.600464,205.060730 
	C458.315521,207.581680 461.865265,209.820129 464.981171,212.553177 
	C471.779724,218.516266 478.357605,224.730972 485.148987,231.222473 
	C497.521332,248.365204 497.157501,264.818176 484.027161,281.643494 
	C476.232300,291.822327 466.010773,298.647217 455.735840,305.894043 
	C447.079102,310.232391 438.618988,314.322235 430.146637,318.386566 
	C427.671539,319.573944 425.161560,320.688599 421.956421,321.938507 
	C410.829987,325.415558 400.414703,328.790680 389.621094,332.225830 
	C379.828033,334.579163 370.413269,336.872467 360.596375,339.106140 
	C350.128906,340.753174 340.063538,342.459900 329.594116,344.249908 
	C317.125732,345.610840 305.061493,346.888489 292.539429,348.095337 
	C280.386993,348.405548 268.692352,348.786560 256.533936,349.096649 
	C245.379211,348.739532 234.688309,348.453339 223.539673,348.095703 
	C212.402191,347.311371 201.722427,346.598480 191.042664,345.885559 
	C184.833130,344.923920 178.627823,343.933868 172.412704,343.009827 
	C167.579620,342.291229 162.734299,341.654968 157.257156,340.587585 
	C153.426300,339.636810 150.210419,339.184204 147.043488,338.503845 
	C139.016342,336.779358 131.011139,334.952667 122.646362,332.993896 
	C111.529083,329.269775 100.762589,325.718750 89.996094,322.167725 
	C79.254997,317.109802 68.513901,312.051910 57.405113,306.940491 
	C49.875736,301.323578 42.446350,296.067657 35.616802,290.122650 
	C26.033525,281.780609 18.700153,271.629303 17.218193,258.701172 
	C16.345484,251.087967 18.779379,243.620895 22.659698,236.855316 
	C27.880993,227.751678 35.379585,220.709900 43.681046,213.976410 
z"/>
<path fill="#FFFFFF" opacity="1.000000" stroke="none" 
	d="
M176.067596,132.449921 
	C179.732834,120.386467 183.195557,108.687881 186.989014,97.097542 
	C192.340027,80.748383 199.802612,65.368675 209.018280,50.470161 
	C214.314926,43.956940 219.125320,37.317829 224.965225,31.760569 
	C233.100586,24.018969 242.387466,17.848581 254.582565,16.903229 
	C269.274536,18.215015 280.745911,24.844742 290.072998,35.529949 
	C291.378967,37.026085 292.865356,38.364777 294.574646,39.907639 
	C299.838623,47.775585 304.924103,55.434402 309.698822,63.282272 
	C312.028900,67.112076 313.779663,71.294312 316.042999,75.817352 
	C311.487244,78.167351 306.989044,80.487656 302.094910,83.012184 
	C301.246033,81.327164 300.460083,79.767044 299.331665,77.685455 
	C294.609253,69.616989 290.993225,61.465111 285.632660,54.694443 
	C280.354401,48.027752 273.307770,42.761154 266.861389,36.558216 
	C262.663605,35.202785 258.543915,33.037003 254.639832,33.373325 
	C246.681198,34.058929 240.208389,38.585697 234.319061,44.471893 
	C233.737350,45.337006 233.486557,45.964809 233.054459,46.420815 
	C221.145874,58.988213 213.165863,73.909927 206.619598,90.074692 
	C204.191193,96.031395 201.733826,101.704918 200.067886,107.602013 
	C195.976562,122.084450 191.447632,136.514114 188.585403,151.254440 
	C185.231995,168.524155 183.367752,186.088501 181.051819,203.550812 
	C180.360336,208.764786 180.274231,214.062729 179.991730,219.326538 
	C179.301834,232.181076 178.358276,245.032074 178.098877,257.896240 
	C177.912323,267.146698 178.657852,276.416321 179.004501,285.676758 
	C179.053741,286.992371 179.187988,288.305328 179.301498,289.617920 
	C179.879166,296.297394 180.462967,302.976318 181.049881,309.715942 
	C179.118515,309.505981 177.557526,309.336304 175.996536,309.166595 
	C173.256546,308.748657 170.344711,308.760132 167.838776,307.757355 
	C166.247391,307.120483 164.231476,305.025787 164.157211,303.499664 
	C163.249542,284.845428 162.034622,266.170319 162.185043,247.510986 
	C162.322906,230.408768 163.113861,213.203278 165.268692,196.253265 
	C167.969147,175.011215 172.354553,153.983383 176.067596,132.449921 
z"/>
<path fill="#FFFFFF" opacity="1.000000" stroke="none" 
	d="
M330.869415,89.434555 
	C342.431641,85.410172 353.824341,81.701256 365.607452,77.912964 
	C371.820099,77.214203 377.696564,76.906494 383.452118,75.904358 
	C392.708038,74.292740 401.486115,76.120041 410.618408,78.771225 
	C425.321594,83.984215 432.604980,94.689606 434.996979,109.254990 
	C437.488312,124.425011 435.763062,139.291733 430.986420,153.730774 
	C426.774536,166.462662 421.831970,178.952820 417.064148,192.111526 
	C409.269226,206.161041 401.768768,219.734863 393.914032,233.100525 
	C389.924561,239.889053 385.296875,246.302582 380.641510,253.031158 
	C377.412140,257.089722 374.637360,261.115448 371.560242,264.895020 
	C361.751984,276.942413 351.831329,288.898285 341.645813,301.027008 
	C336.924194,304.433228 334.791473,310.582306 327.469666,310.212555 
	C321.898987,309.931244 316.232178,311.553436 309.512787,312.479736 
	C320.396820,300.227875 330.222717,289.167114 340.361877,277.968140 
	C346.101318,271.307892 351.739197,264.947968 356.893250,258.217529 
	C361.890900,251.691360 366.391479,244.784515 371.425659,237.906372 
	C373.209198,235.628189 374.803558,233.563232 376.124237,231.335983 
	C382.491425,220.598343 388.784882,209.816971 395.418518,198.886139 
	C399.368591,191.077469 403.349426,183.575974 406.571930,175.761765 
	C414.315765,156.983765 421.097717,137.840530 419.892883,117.097633 
	C419.165131,104.568275 416.222839,97.893867 404.961121,93.647842 
	C400.642120,92.019440 395.735474,91.949570 390.729401,91.096893 
	C387.152313,91.349373 383.896301,91.437103 380.742279,92.049713 
	C374.464996,93.268936 368.243744,94.776848 361.605652,96.096039 
	C351.140686,99.739937 341.069427,103.453262 330.641815,107.206779 
	C319.523590,112.886818 308.761688,118.526680 297.654694,124.197632 
	C287.925201,130.475555 278.565247,136.759827 269.124878,142.920883 
	C267.969910,143.674652 266.383789,143.767731 264.533844,144.095764 
	C256.892883,144.024551 249.715530,144.024551 241.274872,144.024551 
	C249.929718,137.503113 257.484344,131.810684 265.396729,126.062729 
	C276.871826,119.021393 287.989197,112.035591 299.106537,105.049789 
	C309.637665,99.949867 320.168762,94.849937 330.869415,89.434555 
z"/>
<path fill="#019AB3" opacity="1.000000" stroke="none" 
	d="
M380.957703,252.885651 
	C385.296875,246.302582 389.924561,239.889053 393.914032,233.100525 
	C401.768768,219.734863 409.269226,206.161041 417.202179,192.480148 
	C417.658752,201.016327 417.776215,209.747299 418.036133,218.473999 
	C418.103821,220.745850 418.615875,223.004456 418.955933,226.051086 
	C413.588959,235.461060 408.240723,244.121643 402.754486,252.693893 
	C401.408783,254.796600 401.020264,256.142853 402.722351,258.596802 
	C407.505432,265.492920 411.689575,272.804382 415.793884,280.235382 
	C415.333008,289.384186 415.188232,298.249664 415.043457,307.115112 
	C403.961273,310.735565 392.879120,314.356018 381.397888,317.447388 
	C381.590240,308.099884 382.181671,299.281403 382.886047,290.843323 
	C384.497192,293.332031 385.995422,295.440369 387.569672,297.655701 
	C392.354126,296.018280 397.170624,294.369873 402.492981,292.548370 
	C398.124695,285.426239 394.004883,278.709167 389.646881,271.603821 
	C387.143768,274.846069 384.963196,277.670532 382.609314,279.955078 
	C382.290680,276.953247 382.137421,274.491760 382.001587,272.029297 
	C381.649567,265.648315 381.305176,259.266876 380.957703,252.885651 
z"/>
<path fill="#FFFFFF" opacity="1.000000" stroke="none" 
	d="
M416.109955,279.952057 
	C411.689575,272.804382 407.505432,265.492920 402.722351,258.596802 
	C401.020264,256.142853 401.408783,254.796600 402.754486,252.693893 
	C408.240723,244.121643 413.588959,235.461060 419.015900,226.473358 
	C428.781036,231.410538 438.518250,236.707397 448.739136,242.367126 
	C451.923157,245.428192 454.643799,248.106567 457.318359,250.830154 
	C460.007996,253.569077 461.398254,256.482819 458.049042,259.707977 
	C454.056976,263.552185 450.018768,267.348450 445.658447,271.197510 
	C439.095245,275.061737 432.995697,279.112061 426.619232,282.665436 
	C420.127716,286.282928 419.857391,286.028961 416.109955,279.952057 
z"/>
<path fill="#00A8BA" opacity="1.000000" stroke="none" 
	d="
M446.000580,271.165497 
	C450.018768,267.348450 454.056976,263.552185 458.049042,259.707977 
	C461.398254,256.482819 460.007996,253.569077 457.318359,250.830154 
	C454.643799,248.106567 451.923157,245.428192 449.093262,242.426193 
	C449.134399,235.587585 449.305054,229.052780 449.790344,222.233093 
	C461.889526,228.517624 472.196625,236.647461 477.137390,249.735809 
	C479.599945,256.259125 477.851074,262.518616 474.176819,268.340027 
	C468.630249,277.127838 460.390472,282.997406 452.211487,288.946014 
	C450.777863,289.988708 449.201508,290.835144 447.283203,291.399902 
	C446.583740,284.406891 446.292145,277.786194 446.000580,271.165497 
z"/>
<path fill="#FFFFFF" opacity="1.000000" stroke="none" 
	d="
M369.415314,434.093506 
	C356.264099,430.109314 343.530334,426.053162 330.417603,421.939056 
	C323.588409,418.681152 317.102478,415.550629 310.698547,412.260498 
	C304.981689,409.323364 299.355377,406.209961 293.201904,402.716064 
	C285.796906,398.145325 278.879120,394.032867 271.497284,389.644562 
	C273.483002,388.209900 275.127625,387.367371 276.319366,386.099243 
	C280.855103,381.272766 285.597351,378.131500 292.095673,383.431213 
	C304.475952,390.203857 316.717285,396.659790 329.124329,403.431519 
	C332.695618,405.211914 335.997589,407.022888 339.525574,408.078491 
	C351.974182,411.803284 364.500183,415.269257 377.425476,418.906982 
	C385.520203,418.986267 393.252075,419.621643 400.834869,418.829590 
	C409.297607,417.945587 415.375824,413.160858 418.009186,404.606598 
	C421.148987,394.407379 420.532196,384.126648 418.391968,373.956543 
	C416.394989,364.467010 413.669952,355.130676 411.181763,345.399872 
	C414.661957,344.027893 418.349701,342.574066 422.037445,341.120239 
	C423.109406,340.795929 424.181366,340.471649 425.408417,340.100433 
	C432.026733,358.050507 437.373352,376.293945 435.922211,395.700104 
	C434.770447,411.102631 429.114716,424.123260 414.051178,431.639526 
	C399.420105,437.281586 384.691589,437.040466 369.415314,434.093506 
z"/>
<path fill="#019BB3" opacity="1.000000" stroke="none" 
	d="
M422.026062,340.644226 
	C418.349701,342.574066 414.661957,344.027893 411.181763,345.399872 
	C413.669952,355.130676 416.394989,364.467010 418.391968,373.956543 
	C420.532196,384.126648 421.148987,394.407379 418.009186,404.606598 
	C415.375824,413.160858 409.297607,417.945587 400.834869,418.829590 
	C393.252075,419.621643 385.520203,418.986267 377.426453,418.450256 
	C376.997589,412.335480 376.996307,406.751007 377.427765,401.093292 
	C382.927979,401.346069 387.995667,401.937469 393.062927,401.933990 
	C400.088226,401.929199 401.707336,400.213776 402.019104,392.934784 
	C402.617889,378.954285 398.082825,366.027344 393.826660,353.066559 
	C393.481842,352.016479 391.316467,351.564240 389.998108,350.376404 
	C389.999237,344.001007 389.999329,338.083405 389.999420,332.165802 
	C400.414703,328.790680 410.829987,325.415558 421.621857,322.103577 
	C422.003845,328.167206 422.009277,334.167694 422.026062,340.644226 
z"/>
<path fill="#FFFFFF" opacity="1.000000" stroke="none" 
	d="
M161.381348,429.086212 
	C151.796494,431.170074 142.593704,433.174377 133.178101,435.527618 
	C122.494522,436.060455 111.958107,436.903809 101.870018,433.011841 
	C99.476059,432.088287 97.144104,431.004059 94.411133,429.937866 
	C82.368340,422.142395 77.206207,411.044556 75.869583,397.286621 
	C74.007805,378.123383 79.180107,360.345032 85.101204,342.619232 
	C85.373421,341.804321 87.194565,341.506744 88.990112,341.068970 
	C93.496819,342.610718 97.307732,344.051697 101.090317,345.481934 
	C93.633537,366.878418 90.853889,377.373291 92.032295,397.569427 
	C92.391724,403.729553 94.440231,409.361389 99.146873,413.603119 
	C105.674530,419.485901 113.691719,420.275482 122.441605,419.907043 
	C134.624496,419.457428 146.064087,417.446869 157.037964,413.118713 
	C166.783508,411.312378 166.788147,411.310852 169.954849,421.006683 
	C170.350632,422.218475 170.666458,423.456360 171.241425,425.453613 
	C168.100067,426.631195 164.931732,427.818909 161.381348,429.086212 
z"/>
<path fill="#026394" opacity="1.000000" stroke="none" 
	d="
M121.997047,419.833008 
	C113.691719,420.275482 105.674530,419.485901 99.146873,413.603119 
	C94.440231,409.361389 92.391724,403.729553 92.032295,397.569427 
	C90.853889,377.373291 93.633537,366.878418 101.090317,345.481934 
	C97.307732,344.051697 93.496819,342.610718 89.342209,341.000977 
	C89.331795,334.900177 89.665085,328.968170 89.997238,322.601929 
	C100.762589,325.718750 111.529083,329.269775 122.635185,333.405670 
	C122.649529,339.604736 122.324249,345.218964 121.595741,350.904755 
	C120.134277,351.418152 118.479576,351.584259 118.124962,352.351379 
	C116.846046,355.118011 115.746750,358.026154 115.047035,360.991119 
	C112.931686,369.954773 110.965630,378.955475 109.073364,387.969452 
	C107.125542,397.248138 110.916252,401.823914 120.511978,402.016418 
	C121.007828,402.026337 121.502098,402.114990 121.998001,402.624023 
	C121.998276,408.665009 121.997665,414.249023 121.997047,419.833008 
z"/>
<path fill="#FFFFFF" opacity="1.000000" stroke="none" 
	d="
M254.442657,494.093567 
	C244.068588,493.945435 236.082138,489.116882 228.741043,483.120117 
	C225.128510,480.169067 222.062363,476.549194 218.434052,473.097534 
	C204.777161,456.719940 195.891510,438.017700 187.997925,418.338318 
	C183.700470,403.974915 179.483719,389.973969 175.487381,375.910400 
	C174.257568,371.582550 173.629913,367.083649 172.549881,361.798553 
	C177.891556,362.266449 182.567642,362.565674 187.199860,363.190155 
	C187.973145,363.294434 188.555893,364.811920 189.604980,366.274872 
	C196.099701,395.712128 205.313904,423.395996 220.679993,449.044617 
	C225.955673,455.743988 230.663300,462.647430 236.360382,468.604614 
	C241.263733,473.731842 247.254822,477.863892 255.419403,477.906006 
	C266.382446,478.345398 273.148224,471.274292 279.399872,464.656555 
	C285.111053,458.610992 289.091034,450.930023 293.833954,443.969757 
	C296.432556,438.973083 299.031189,433.976379 301.851715,428.553009 
	C306.644440,430.889282 311.265228,433.141754 316.122803,435.509644 
	C310.208588,448.302612 303.612091,460.469757 294.437042,471.092499 
	C293.601929,472.059357 292.960907,473.193909 292.096252,474.564697 
	C286.096344,479.560638 280.482056,484.613983 274.289673,488.815369 
	C268.580261,492.689117 261.967468,494.567596 254.442657,494.093567 
z"/>
<path fill="#02769F" opacity="1.000000" stroke="none" 
	d="
M220.541397,448.837952 
	C205.313904,423.395996 196.099701,395.712128 189.938110,366.461243 
	C190.261948,361.602997 190.677032,357.160034 190.978745,352.709412 
	C191.110886,350.760071 191.011444,348.794983 191.029907,346.361328 
	C201.722427,346.598480 212.402191,347.311371 223.540466,348.553406 
	C223.998047,359.666077 223.997131,370.249542 223.675903,380.985474 
	C220.191116,383.265564 217.026642,385.393219 214.147629,387.328949 
	C215.188507,391.159973 215.834854,394.651154 217.151779,397.867798 
	C217.721481,399.259369 219.675186,400.084290 221.000092,401.624817 
	C220.847107,417.667999 220.694244,433.252960 220.541397,448.837952 
z"/>
<path fill="#FFFFFF" opacity="1.000000" stroke="none" 
	d="
M121.997108,402.166992 
	C121.502098,402.114990 121.007828,402.026337 120.511978,402.016418 
	C110.916252,401.823914 107.125542,397.248138 109.073364,387.969452 
	C110.965630,378.955475 112.931686,369.954773 115.047035,360.991119 
	C115.746750,358.026154 116.846046,355.118011 118.124962,352.351379 
	C118.479576,351.584259 120.134277,351.418152 121.949814,351.082153 
	C129.229538,352.793213 135.711685,354.594360 142.286179,355.946198 
	C148.351929,357.193390 154.719391,357.697052 155.167023,365.995300 
	C156.787949,373.969330 158.045151,382.043854 160.207108,389.868408 
	C161.083694,393.040985 159.702591,393.309998 157.007568,394.131683 
	C145.324585,398.976807 133.816788,401.247406 121.997108,402.166992 
z"/>
<path fill="#026897" opacity="1.000000" stroke="none" 
	d="
M155.550110,365.889221 
	C154.719391,357.697052 148.351929,357.193390 142.286179,355.946198 
	C135.711685,354.594360 129.229538,352.793213 122.353050,351.010620 
	C122.324249,345.218964 122.649529,339.604736 122.985977,333.578735 
	C131.011139,334.952667 139.016342,336.779358 147.043488,338.503845 
	C150.210419,339.184204 153.426300,339.636810 156.828094,340.536224 
	C157.024170,347.662201 157.074890,354.446167 156.951691,361.227020 
	C156.923996,362.751373 156.288773,364.264709 155.550110,365.889221 
z"/>
<path fill="#026897" opacity="1.000000" stroke="none" 
	d="
M121.998001,402.624023 
	C133.816788,401.247406 145.324585,398.976807 156.632263,394.211548 
	C157.003601,400.167236 157.009399,406.167084 157.026581,412.642822 
	C146.064087,417.446869 134.624496,419.457428 122.441605,419.907043 
	C121.997665,414.249023 121.998276,408.665009 121.998001,402.624023 
z"/>
<path fill="#0283A6" opacity="1.000000" stroke="none" 
	d="
M293.572876,443.651550 
	C289.091034,450.930023 285.111053,458.610992 279.399872,464.656555 
	C273.148224,471.274292 266.382446,478.345398 255.420135,477.449280 
	C254.998138,471.335266 254.997101,465.751190 255.364960,460.093567 
	C261.832397,458.298798 265.523407,453.588776 268.653961,448.695618 
	C274.117676,440.155609 278.977051,431.230988 284.198456,422.532806 
	C285.783661,419.892120 284.574951,418.955750 282.356720,417.648010 
	C276.121307,413.971954 270.074188,409.976562 264.120911,405.715881 
	C264.525970,397.922821 264.902374,390.521637 264.937805,383.118805 
	C264.954132,379.711487 264.302521,376.300964 264.088165,372.578430 
	C266.060089,370.706421 267.897644,369.147888 270.627655,366.832367 
	C265.188019,366.832367 261.092651,366.832367 256.998138,366.375122 
	C256.998535,360.334412 256.998108,354.750977 256.997711,349.167542 
	C268.692352,348.786560 280.386993,348.405548 292.540283,348.553101 
	C292.999329,357.513885 293.087250,365.947510 292.952087,374.377563 
	C292.905365,377.294464 292.304504,380.202454 291.956757,383.114532 
	C285.597351,378.131500 280.855103,381.272766 276.319366,386.099243 
	C275.127625,387.367371 273.483002,388.209900 271.497284,389.644562 
	C278.879120,394.032867 285.796906,398.145325 292.875885,402.567963 
	C293.128601,416.363190 293.220184,429.848267 293.572876,443.651550 
z"/>
<path fill="#0184A6" opacity="1.000000" stroke="none" 
	d="
M298.791443,104.765503 
	C287.989197,112.035591 276.871826,119.021393 265.385071,125.586967 
	C264.664551,118.737999 264.313416,112.309265 264.099609,105.565102 
	C271.392731,100.617126 278.548553,95.984581 286.787659,90.650742 
	C279.523651,79.823364 272.242645,68.970703 265.125732,57.725227 
	C265.526520,55.400078 265.832733,53.473236 265.986389,51.534309 
	C266.373291,46.652531 266.691376,41.765289 267.037048,36.880241 
	C273.307770,42.761154 280.354401,48.027752 285.632660,54.694443 
	C290.993225,61.465111 294.609253,69.616989 299.018982,77.528015 
	C298.857910,86.755104 298.667145,95.618164 298.791443,104.765503 
z"/>
<path fill="#02739D" opacity="1.000000" stroke="none" 
	d="
M175.997650,309.623596 
	C177.557526,309.336304 179.118515,309.505981 181.049881,309.715942 
	C180.462967,302.976318 179.879166,296.297394 179.301498,289.617920 
	C179.187988,288.305328 179.053741,286.992371 179.004501,285.676758 
	C178.657852,276.416321 177.912323,267.146698 178.098877,257.896240 
	C178.358276,245.032074 179.301834,232.181076 179.991730,219.326538 
	C180.274231,214.062729 180.360336,208.764786 181.051819,203.550812 
	C183.367752,186.088501 185.231995,168.524155 188.585403,151.254440 
	C191.447632,136.514114 195.976562,122.084450 200.067886,107.602013 
	C201.733826,101.704918 204.191193,96.031395 206.788406,90.465698 
	C207.525558,92.621170 207.964935,94.566666 207.969086,96.513100 
	C208.016937,118.953117 207.998825,141.393280 207.610565,163.912537 
	C206.167969,164.637436 204.360703,165.122101 204.182236,165.955505 
	C203.151550,170.769226 202.505478,175.665298 201.655167,180.997360 
	C206.323715,180.683228 210.160309,180.425079 213.997849,180.624786 
	C213.668411,189.697021 213.255295,198.309631 213.068634,206.927124 
	C213.024643,208.957687 213.743790,211.004791 213.972717,213.356873 
	C208.758179,219.080811 203.591125,224.411163 198.681183,229.968674 
	C197.639435,231.147827 197.085541,233.151810 197.070877,234.782639 
	C196.946823,248.576340 196.931534,262.372406 197.085495,276.165497 
	C197.105072,277.919128 197.854431,280.044434 199.005066,281.341827 
	C204.910202,288.000244 211.057205,294.444153 216.801453,301.242767 
	C216.320877,311.626007 216.158569,321.729492 215.996277,331.832947 
	C202.910049,330.293976 189.823807,328.755005 176.367981,327.024658 
	C175.998505,321.249115 175.998627,315.664856 175.997650,309.623596 
z"/>
<path fill="#FFFFFF" opacity="1.000000" stroke="none" 
	d="
M92.906593,82.428131 
	C101.859734,78.044212 110.835945,74.411888 120.803604,75.052048 
	C126.272446,75.403275 131.706223,76.300659 137.576004,76.892250 
	C149.345322,78.518387 160.318268,81.493279 171.213577,85.923050 
	C169.455963,91.140976 167.886948,95.798988 166.378906,100.275978 
	C156.335419,97.809525 146.578995,95.413574 135.991089,93.009125 
	C125.691483,91.307709 116.288109,90.775009 106.859482,93.541008 
	C97.487465,96.290405 92.900673,103.176109 92.215790,112.070091 
	C91.560745,120.576599 91.799278,129.368225 93.197052,137.776520 
	C97.644554,164.530487 109.610832,188.386124 123.131149,211.897644 
	C128.930511,221.210907 134.783463,230.139740 140.594772,239.095596 
	C141.807037,240.963821 143.745544,242.889816 143.839874,244.861389 
	C144.215637,252.715836 143.994720,260.598816 143.994720,268.471222 
	C143.565140,268.653717 143.135559,268.836212 142.705963,269.018707 
	C135.954041,259.397888 129.202103,249.777069 122.310143,239.950729 
	C115.492546,228.667542 108.619850,217.701370 102.205048,206.473587 
	C97.822769,198.803314 94.079407,190.767990 90.050392,182.895889 
	C86.201004,170.941986 81.820480,159.127594 78.635010,146.999313 
	C74.539520,131.406235 73.737175,115.625671 78.909286,99.915611 
	C81.404213,92.337395 86.722893,87.308350 92.906593,82.428131 
z"/>
<path fill="#026495" opacity="1.000000" stroke="none" 
	d="
M123.169937,211.522797 
	C109.610832,188.386124 97.644554,164.530487 93.197052,137.776520 
	C91.799278,129.368225 91.560745,120.576599 92.215790,112.070091 
	C92.900673,103.176109 97.487465,96.290405 106.859482,93.541008 
	C116.288109,90.775009 125.691483,91.307709 135.578308,93.083664 
	C135.997665,98.750679 135.998306,104.334663 135.576202,110.446289 
	C130.655792,110.316246 126.176903,109.442162 121.656204,109.049942 
	C114.287262,108.410622 111.278114,110.481300 109.935165,117.507584 
	C109.349892,120.569710 109.892265,123.858849 110.009445,127.041695 
	C110.450447,139.020355 114.850174,149.952667 118.534996,160.917450 
	C124.668953,159.600021 130.333588,158.383392 135.998230,157.166748 
	C136.003601,162.834503 136.008957,168.502274 135.833054,174.979019 
	C132.450912,176.823044 129.250061,177.858078 125.880844,179.283997 
	C125.474983,181.448532 125.052330,183.220154 125.032555,184.996262 
	C124.953560,192.092484 125.118057,199.193466 124.916100,206.284821 
	C124.865936,208.045959 123.779854,209.777588 123.169937,211.522797 
z"/>
<path fill="#026897" opacity="1.000000" stroke="none" 
	d="
M123.131149,211.897644 
	C123.779854,209.777588 124.865936,208.045959 124.916100,206.284821 
	C125.118057,199.193466 124.953560,192.092484 125.032555,184.996262 
	C125.052330,183.220154 125.474983,181.448532 126.203262,179.446564 
	C128.412384,182.657944 129.938156,186.216476 131.950073,189.474854 
	C132.686966,190.668259 134.687393,191.969986 135.919281,191.803207 
	C139.663513,191.296295 143.313919,190.096573 147.000870,189.166656 
	C147.000458,233.083694 147.000061,277.000732 146.999298,321.375549 
	C138.923523,319.887299 130.848114,317.941254 122.386017,315.456909 
	C121.998398,309.001312 121.997482,303.084015 122.372437,297.092346 
	C123.516373,296.821350 124.530396,296.872467 125.015625,296.390839 
	C132.347366,289.113434 132.523407,284.116608 125.806267,276.320007 
	C124.578804,274.895294 123.295197,273.518921 122.025925,271.644196 
	C122.159637,260.830841 122.304909,250.493546 122.450180,240.156235 
	C129.202103,249.777069 135.954041,259.397888 142.705963,269.018707 
	C143.135559,268.836212 143.565140,268.653717 143.994720,268.471222 
	C143.994720,260.598816 144.215637,252.715836 143.839874,244.861389 
	C143.745544,242.889816 141.807037,240.963821 140.594772,239.095596 
	C134.783463,230.139740 128.930511,221.210907 123.131149,211.897644 
z"/>
<path fill="#FFFFFF" opacity="1.000000" stroke="none" 
	d="
M136.358917,156.983017 
	C130.333588,158.383392 124.668953,159.600021 118.534996,160.917450 
	C114.850174,149.952667 110.450447,139.020355 110.009445,127.041695 
	C109.892265,123.858849 109.349892,120.569710 109.935165,117.507584 
	C111.278114,110.481300 114.287262,108.410622 121.656204,109.049942 
	C126.176903,109.442162 130.655792,110.316246 135.575134,110.903603 
	C144.333115,113.306229 152.669403,115.779198 160.837173,118.202171 
	C158.490509,129.233810 156.355530,139.852859 153.846191,150.382706 
	C153.504761,151.815384 151.472748,153.415161 149.909866,153.877609 
	C145.602127,155.152283 141.127960,155.864548 136.358917,156.983017 
z"/>
<path fill="#FFFFFF" opacity="1.000000" stroke="none" 
	d="
M147.356796,188.951996 
	C143.313919,190.096573 139.663513,191.296295 135.919281,191.803207 
	C134.687393,191.969986 132.686966,190.668259 131.950073,189.474854 
	C129.938156,186.216476 128.412384,182.657944 126.371620,179.055710 
	C129.250061,177.858078 132.450912,176.823044 135.844604,175.454132 
	C140.461960,174.373657 144.886505,173.627045 150.100876,172.747162 
	C149.254456,178.414520 148.483582,183.575912 147.356796,188.951996 
z"/>
<path fill="#026394" opacity="1.000000" stroke="none" 
	d="
M121.996552,297.166687 
	C121.997482,303.084015 121.998398,309.001312 121.998772,315.375946 
	C110.889336,311.941681 99.780449,308.050110 88.335037,303.995514 
	C88.235764,297.777710 88.473015,291.722931 89.217499,285.329285 
	C90.513443,284.817688 91.719284,284.913513 92.029030,284.432434 
	C97.787270,275.488617 103.477989,266.500214 109.052147,257.440765 
	C109.608307,256.536896 109.839188,254.796112 109.341850,253.978622 
	C103.981720,245.168152 98.509415,236.422821 92.851936,227.801346 
	C92.316933,226.986038 90.316154,227.132584 88.995895,226.832565 
	C88.997269,214.229675 88.970764,201.626633 89.031624,189.024033 
	C89.040245,187.240662 89.474457,185.459335 89.881035,183.286469 
	C94.079407,190.767990 97.822769,198.803314 102.205048,206.473587 
	C108.619850,217.701370 115.492546,228.667542 122.310150,239.950729 
	C122.304909,250.493546 122.159637,260.830841 121.890381,271.957947 
	C117.474670,279.297119 113.182930,285.846497 108.823204,292.499664 
	C113.584061,294.186340 117.790306,295.676514 121.996552,297.166687 
z"/>
<path fill="#FFFFFF" opacity="1.000000" stroke="none" 
	d="
M88.667015,226.987610 
	C90.316154,227.132584 92.316933,226.986038 92.851936,227.801346 
	C98.509415,236.422821 103.981720,245.168152 109.341850,253.978622 
	C109.839188,254.796112 109.608307,256.536896 109.052147,257.440765 
	C103.477989,266.500214 97.787270,275.488617 92.029030,284.432434 
	C91.719284,284.913513 90.513443,284.817688 89.381836,284.936768 
	C80.395714,279.594025 71.583443,274.556152 63.184120,268.904602 
	C59.271832,266.272186 55.892124,262.675201 52.835281,259.040863 
	C51.803242,257.813812 51.686420,254.626465 52.558052,253.186615 
	C57.338696,245.289536 65.076401,240.555054 72.664627,235.826767 
	C77.727219,232.672211 83.102692,230.019791 88.667015,226.987610 
z"/>
<path fill="#018BAB" opacity="1.000000" stroke="none" 
	d="
M340.048584,278.106354 
	C330.222717,289.167114 320.396820,300.227875 309.512787,312.479736 
	C316.232178,311.553436 321.898987,309.931244 327.469666,310.212555 
	C334.791473,310.582306 336.924194,304.433228 341.813354,301.418762 
	C342.525024,309.726440 342.760834,317.779907 342.996643,325.833313 
	C337.614899,326.872681 332.269531,328.202850 326.842682,328.881409 
	C319.220245,329.834473 311.537292,330.303497 303.439697,330.448730 
	C302.999420,319.298767 303.048920,308.679199 302.949921,298.060974 
	C302.934082,296.357697 302.254578,294.660614 302.017487,292.651031 
	C304.977722,289.520355 307.683716,286.566162 310.659271,283.914459 
	C313.839203,281.080597 315.233917,277.859497 315.085785,273.497772 
	C314.792145,264.853088 315.060547,256.190796 314.979736,247.536896 
	C314.913940,240.490540 316.583160,233.068008 311.118347,226.716644 
	C311.525055,224.387222 311.959259,222.449677 311.968262,220.510147 
	C312.029083,207.395401 311.999939,194.280212 312.421143,181.094086 
	C317.795380,181.682373 322.758362,182.275192 327.698181,183.021667 
	C331.811829,183.643265 335.898193,184.445251 339.997742,185.624542 
	C339.998627,191.665375 339.998444,197.249008 339.578613,202.903336 
	C336.543854,202.642822 333.928711,202.311600 330.528625,201.880966 
	C331.069916,207.763428 331.755737,212.796127 331.953461,217.847946 
	C332.424500,229.885345 332.660248,241.931931 333.005951,253.974365 
	C333.040283,255.170578 333.177124,256.363831 333.266388,257.558441 
	C333.025055,257.146637 332.783691,256.734802 332.542358,256.322998 
	C334.682587,254.842163 336.822845,253.361359 338.974426,252.356567 
	C338.990479,255.662430 338.886139,258.497559 339.023041,261.320984 
	C339.294525,266.919525 339.699066,272.511597 340.048584,278.106354 
z"/>
<path fill="#0190AD" opacity="1.000000" stroke="none" 
	d="
M376.995026,401.166565 
	C376.996307,406.751007 376.997589,412.335480 376.997864,418.376648 
	C364.500183,415.269257 351.974182,411.803284 339.525574,408.078491 
	C335.997589,407.022888 332.695618,405.211914 329.183716,403.009033 
	C329.383514,396.236023 329.689575,390.201324 330.375488,384.221466 
	C332.424316,385.319519 333.501282,385.784058 334.076721,382.999176 
	C335.500458,376.108521 337.320282,369.299683 339.173615,361.664093 
	C335.716248,362.104675 332.856720,362.469086 329.998169,362.375763 
	C329.998810,356.000885 329.998505,350.083771 329.998199,344.166626 
	C340.063538,342.459900 350.128906,340.753174 360.659088,339.509277 
	C361.428772,345.688141 361.733582,351.404236 361.830109,357.457184 
	C359.841187,358.126923 358.278564,357.700562 357.773682,360.792542 
	C356.295502,369.845276 354.414124,378.893280 351.785828,387.672241 
	C350.398468,392.306152 351.784576,393.848022 355.730011,394.955078 
	C362.839539,396.950012 369.908905,399.088226 376.995026,401.166565 
z"/>
<path fill="#0193AF" opacity="1.000000" stroke="none" 
	d="
M343.416870,325.906250 
	C342.760834,317.779907 342.525024,309.726440 342.121643,301.281250 
	C351.831329,288.898285 361.751984,276.942413 371.560242,264.895020 
	C374.637360,261.115448 377.412140,257.089722 380.641541,253.031158 
	C381.305176,259.266876 381.649567,265.648315 382.001587,272.029297 
	C382.137421,274.491760 382.290680,276.953247 382.447571,280.203033 
	C377.749512,284.307831 381.013855,287.360443 382.773102,290.462952 
	C382.181671,299.281403 381.590240,308.099884 380.997772,317.375885 
	C372.750244,319.889221 364.529327,322.056488 356.246399,323.953186 
	C352.169128,324.886810 347.977173,325.319702 343.416870,325.906250 
z"/>
<path fill="#0189A9" opacity="1.000000" stroke="none" 
	d="
M329.594116,344.249908 
	C329.998505,350.083771 329.998810,356.000885 329.565918,362.445923 
	C326.719727,363.664886 323.314209,361.259491 322.006409,365.414398 
	C318.148895,377.669647 318.121582,377.660706 329.150787,383.660187 
	C329.438934,383.816956 329.714264,383.997284 329.995605,384.166595 
	C329.689575,390.201324 329.383514,396.236023 329.018066,402.693237 
	C316.717285,396.659790 304.475952,390.203857 292.095673,383.431213 
	C292.304504,380.202454 292.905365,377.294464 292.952087,374.377563 
	C293.087250,365.947510 292.999329,357.513885 292.998108,348.623901 
	C305.061493,346.888489 317.125732,345.610840 329.594116,344.249908 
z"/>
<path fill="#0184A6" opacity="1.000000" stroke="none" 
	d="
M301.881836,292.960632 
	C302.254578,294.660614 302.934082,296.357697 302.949921,298.060974 
	C303.048920,308.679199 302.999420,319.298767 302.998535,330.375610 
	C289.639771,331.548798 276.281677,332.264282 262.461182,332.449158 
	C261.998169,326.335052 261.997528,320.751556 262.459656,315.094177 
	C265.735687,315.013153 268.559418,315.154846 271.359497,314.958771 
	C274.414001,314.744873 278.381836,315.305328 280.323334,313.635376 
	C287.860657,307.152039 294.750793,299.916321 301.881836,292.960632 
z"/>
<path fill="#027BA1" opacity="1.000000" stroke="none" 
	d="
M261.996887,315.168030 
	C261.997528,320.751556 261.998169,326.335052 261.998077,332.375275 
	C246.971619,332.548248 231.945908,332.264526 216.458221,331.906860 
	C216.158569,321.729492 216.320877,311.626007 217.107300,301.368896 
	C220.190689,303.681152 222.619385,306.178497 225.116058,308.605927 
	C229.415649,312.786255 233.872833,315.859070 240.607086,315.173981 
	C247.664185,314.455994 254.861084,315.112335 261.996887,315.168030 
z"/>
<path fill="#027BA1" opacity="1.000000" stroke="none" 
	d="
M256.533936,349.096619 
	C256.998108,354.750977 256.998535,360.334412 256.540039,366.445831 
	C251.395111,367.482727 246.148834,366.832214 242.150421,368.764191 
	C235.668518,371.896149 230.005157,376.722229 223.996216,380.833038 
	C223.997131,370.249542 223.998047,359.666077 223.998169,348.624847 
	C234.688309,348.453339 245.379211,348.739532 256.533936,349.096619 
z"/>
<path fill="#01A1B7" opacity="1.000000" stroke="none" 
	d="
M445.658447,271.197510 
	C446.292145,277.786194 446.583740,284.406891 446.936584,291.431030 
	C436.598389,296.890533 426.198853,301.946533 415.421387,307.058838 
	C415.188232,298.249664 415.333008,289.384186 415.793884,280.235382 
	C419.857391,286.028961 420.127716,286.282928 426.619232,282.665436 
	C432.995697,279.112061 439.095245,275.061737 445.658447,271.197510 
z"/>
<path fill="#0197B1" opacity="1.000000" stroke="none" 
	d="
M362.038422,357.120331 
	C361.733582,351.404236 361.428772,345.688141 361.061218,339.568909 
	C370.413269,336.872467 379.828033,334.579163 389.621094,332.225830 
	C389.999329,338.083405 389.999237,344.001007 389.645721,350.554535 
	C380.207672,353.167084 371.123047,355.143707 362.038422,357.120331 
z"/>
<path fill="#0278A0" opacity="1.000000" stroke="none" 
	d="
M207.998245,163.833405 
	C207.998825,141.393280 208.016937,118.953117 207.969086,96.513100 
	C207.964935,94.566666 207.525558,92.621170 207.119537,90.284241 
	C213.165863,73.909927 221.145874,58.988213 233.054459,46.420815 
	C233.486557,45.964809 233.737350,45.337006 234.399231,45.089275 
	C234.816956,47.210327 234.906006,49.031471 234.999680,50.852386 
	C235.347046,57.605843 235.695938,64.359230 236.016983,71.473549 
	C232.566650,78.315582 229.143631,84.796707 225.635178,91.439575 
	C228.725143,93.440331 231.382446,95.160942 234.019196,97.311813 
	C233.653046,104.201378 233.307449,110.660675 232.602264,117.061623 
	C227.897003,114.426643 223.551331,111.850021 218.837036,109.054840 
	C217.072479,114.364014 215.425217,119.320282 213.752426,124.353333 
	C218.374298,127.097153 222.641312,129.630310 226.710709,132.046158 
	C228.986588,130.529190 230.974747,129.204010 232.974396,128.354950 
	C232.989975,140.165329 232.994034,151.499603 232.538345,162.905029 
	C224.051804,163.261917 216.025024,163.547653 207.998245,163.833405 
z"/>
<path fill="#027DA3" opacity="1.000000" stroke="none" 
	d="
M236.044281,71.112640 
	C235.695938,64.359230 235.347046,57.605843 234.999680,50.852386 
	C234.906006,49.031471 234.816956,47.210327 234.645660,44.771904 
	C240.208389,38.585697 246.681198,34.058929 254.639832,33.373325 
	C258.543915,33.037003 262.663605,35.202785 266.861389,36.558220 
	C266.691376,41.765289 266.373291,46.652531 265.986389,51.534309 
	C265.832733,53.473236 265.526520,55.400078 264.814880,57.586426 
	C255.623505,49.229813 256.170288,49.258007 246.633499,57.880905 
	C245.777649,58.654758 244.955139,59.490471 244.247742,60.399120 
	C241.484756,63.948101 238.774277,67.537971 236.044281,71.112640 
z"/>
<path fill="#0190AD" opacity="1.000000" stroke="none" 
	d="
M340.361877,277.968140 
	C339.699066,272.511597 339.294525,266.919525 339.023041,261.320984 
	C338.886139,258.497559 338.990479,255.662430 339.109253,252.041489 
	C340.077850,250.077469 340.966400,248.933151 341.760529,247.726685 
	C345.137573,242.595901 350.746765,238.472031 348.985229,231.044189 
	C348.390747,228.537323 348.200470,225.915573 348.022400,223.332764 
	C347.584991,216.989838 347.262177,210.639008 346.909027,204.562363 
	C344.341949,203.919830 342.170105,203.376236 339.998260,202.832626 
	C339.998444,197.249008 339.998627,191.665375 340.422119,185.552063 
	C350.576080,186.975174 360.306732,188.927979 370.025818,191.356781 
	C370.009491,205.543289 369.966339,219.254028 370.049133,232.964020 
	C370.059357,234.659698 370.740234,236.351318 371.110352,238.044830 
	C366.391479,244.784515 361.890900,251.691360 356.893250,258.217529 
	C351.739197,264.947968 346.101318,271.307892 340.361877,277.968140 
z"/>
<path fill="#0190AD" opacity="1.000000" stroke="none" 
	d="
M330.998138,107.166595 
	C341.069427,103.453262 351.140686,99.739937 361.606018,96.553329 
	C361.999481,102.998260 361.998871,108.916466 361.607483,114.905457 
	C357.873444,116.083984 354.530243,117.191704 350.904663,118.392998 
	C351.089142,120.002060 351.105469,121.472923 351.442993,122.865990 
	C353.231995,130.250259 355.747681,137.530029 356.731842,145.014282 
	C357.472717,150.648163 359.078583,154.250488 364.980255,155.302338 
	C364.614258,161.427704 364.306122,167.130737 363.595825,172.893372 
	C360.223663,172.300842 357.269073,171.565979 354.280823,171.012619 
	C346.527679,169.576935 338.759735,168.221100 330.998474,166.376144 
	C330.998657,160.334778 330.998108,154.750671 331.409485,149.093781 
	C334.117157,149.353058 336.412933,149.685135 339.152527,150.081406 
	C337.313019,141.928680 335.657349,134.466019 333.878967,127.032700 
	C333.776917,126.606171 332.674255,126.419037 331.873810,125.727432 
	C331.472931,119.278442 331.235535,113.222519 330.998138,107.166595 
z"/>
<path fill="#019BB3" opacity="1.000000" stroke="none" 
	d="
M391.096619,91.169518 
	C395.735474,91.949570 400.642120,92.019440 404.961121,93.647842 
	C416.222839,97.893867 419.165131,104.568275 419.892883,117.097633 
	C421.097717,137.840530 414.315765,156.983765 406.571930,175.761765 
	C403.349426,183.575974 399.368591,191.077469 395.106689,198.606689 
	C394.343567,195.542709 394.140808,192.594513 394.080902,189.643433 
	C393.874512,179.480225 393.718018,169.316025 393.726318,158.847412 
	C394.168243,157.617249 394.369965,156.671677 394.692810,155.769455 
	C399.169861,143.257431 402.727295,130.524017 401.819641,117.092354 
	C401.655182,114.658638 399.582794,111.855286 397.580933,110.206055 
	C396.049591,108.944420 393.239868,109.234398 390.999329,108.375992 
	C391.032135,102.335007 391.064392,96.752266 391.096619,91.169518 
z"/>
<path fill="#027DA3" opacity="1.000000" stroke="none" 
	d="
M232.961853,117.119980 
	C233.307449,110.660675 233.653046,104.201378 234.343933,97.457611 
	C238.251022,99.406715 241.893372,101.522980 245.356506,103.900299 
	C251.071899,107.823746 256.630310,112.265518 263.477722,105.967911 
	C263.579712,105.874084 263.798187,105.906845 263.962280,105.880524 
	C264.313416,112.309265 264.664551,118.737999 265.027344,125.642502 
	C257.484344,131.810684 249.929718,137.503113 241.274872,144.024551 
	C249.715530,144.024551 256.892883,144.024551 264.534668,144.552521 
	C264.998779,150.664673 264.998474,156.248856 264.534363,161.904205 
	C253.713120,162.261551 243.355606,162.547714 232.998108,162.833862 
	C232.994034,151.499603 232.989975,140.165329 233.108444,128.041748 
	C235.251877,125.555328 237.272751,123.858223 239.269241,122.181602 
	C236.857956,120.246567 234.909912,118.683273 232.961853,117.119980 
z"/>
<path fill="#0197B1" opacity="1.000000" stroke="none" 
	d="
M393.542480,159.152191 
	C393.718018,169.316025 393.874512,179.480225 394.080902,189.643433 
	C394.140808,192.594513 394.343567,195.542709 394.792664,198.771667 
	C388.784882,209.816971 382.491425,220.598343 376.124237,231.335983 
	C374.803558,233.563232 373.209198,235.628189 371.425659,237.906372 
	C370.740234,236.351318 370.059357,234.659698 370.049133,232.964020 
	C369.966339,219.254028 370.009491,205.543289 370.438354,191.406952 
	C378.463562,191.991959 378.459930,191.990158 382.036469,184.798828 
	C383.041656,182.777710 384.074890,180.770538 385.476776,178.004089 
	C378.033691,176.212402 371.015869,174.523087 363.998016,172.833755 
	C364.306122,167.130737 364.614258,161.427704 365.401093,155.352509 
	C374.182922,156.754318 382.476929,158.574142 390.803650,160.229507 
	C391.613190,160.390457 392.624725,159.535568 393.542480,159.152191 
z"/>
<path fill="#0189A9" opacity="1.000000" stroke="none" 
	d="
M330.997559,149.166565 
	C330.998108,154.750671 330.998657,160.334778 330.562500,166.446487 
	C319.749939,165.927185 309.374084,164.880264 298.998779,163.375153 
	C298.999573,155.436340 299.124298,147.952972 298.958405,140.476059 
	C298.837677,135.035141 298.333160,129.602753 297.999756,124.166542 
	C308.761688,118.526680 319.523590,112.886818 330.641815,107.206779 
	C331.235535,113.222519 331.472931,119.278442 331.708679,126.039528 
	C327.440125,128.922211 323.173218,131.099747 319.119873,133.168304 
	C320.275024,138.353470 321.312683,143.011154 322.355988,147.694275 
	C325.297241,148.195389 328.147400,148.680969 330.997559,149.166565 
z"/>
<path fill="#0184A6" opacity="1.000000" stroke="none" 
	d="
M297.654663,124.197632 
	C298.333160,129.602753 298.837677,135.035141 298.958405,140.476059 
	C299.124298,147.952972 298.999573,155.436340 298.556976,163.446075 
	C287.075775,163.261154 276.036957,162.547089 264.998138,161.833023 
	C264.998474,156.248856 264.998779,150.664673 264.998291,144.623749 
	C266.383789,143.767731 267.969910,143.674652 269.124878,142.920883 
	C278.565247,136.759827 287.925201,130.475555 297.654663,124.197632 
z"/>
<path fill="#0197B1" opacity="1.000000" stroke="none" 
	d="
M390.729401,91.096893 
	C391.064392,96.752266 391.032135,102.335007 390.574829,108.446777 
	C380.765930,110.928757 371.382111,112.881714 361.998291,114.834663 
	C361.998871,108.916466 361.999481,102.998260 361.999695,96.622772 
	C368.243744,94.776848 374.464996,93.268936 380.742279,92.049713 
	C383.896301,91.437103 387.152313,91.349373 390.729401,91.096893 
z"/>
<path fill="#FFFFFF" opacity="1.000000" stroke="none" 
	d="
M382.886047,290.843323 
	C381.013855,287.360443 377.749512,284.307831 382.620880,280.742920 
	C384.963196,277.670532 387.143768,274.846069 389.646881,271.603821 
	C394.004883,278.709167 398.124695,285.426239 402.492981,292.548370 
	C397.170624,294.369873 392.354126,296.018280 387.569672,297.655701 
	C385.995422,295.440369 384.497192,293.332031 382.886047,290.843323 
z"/>
<path fill="#FFFFFF" opacity="1.000000" stroke="none" 
	d="
M361.830109,357.457184 
	C371.123047,355.143707 380.207672,353.167084 389.644714,351.012329 
	C391.316467,351.564240 393.481842,352.016479 393.826660,353.066559 
	C398.082825,366.027344 402.617889,378.954285 402.019104,392.934784 
	C401.707336,400.213776 400.088226,401.929199 393.062927,401.933990 
	C387.995667,401.937469 382.927979,401.346069 377.427765,401.093292 
	C369.908905,399.088226 362.839539,396.950012 355.730011,394.955078 
	C351.784576,393.848022 350.398468,392.306152 351.785828,387.672241 
	C354.414124,378.893280 356.295502,369.845276 357.773682,360.792542 
	C358.278564,357.700562 359.841187,358.126923 361.830109,357.457184 
z"/>
<path fill="#027BA1" opacity="1.000000" stroke="none" 
	d="
M254.996048,460.167145 
	C254.997101,465.751190 254.998138,471.335266 254.998444,477.376038 
	C247.254822,477.863892 241.263733,473.731842 236.360382,468.604614 
	C230.663300,462.647430 225.955673,455.743988 220.679993,449.044617 
	C220.694244,433.252960 220.847107,417.667999 221.324615,401.469543 
	C228.753677,396.531250 235.858078,392.206390 242.973694,388.357544 
	C243.338974,395.258331 243.693069,401.683167 243.907379,408.424988 
	C237.877594,412.422424 231.987564,416.102844 225.752747,419.998718 
	C228.433273,425.125763 231.050934,430.320068 233.837448,435.422119 
	C239.148163,445.146027 245.514282,453.996338 254.996048,460.167145 
z"/>
<path fill="#FFFFFF" opacity="1.000000" stroke="none" 
	d="
M242.962494,387.881561 
	C235.858078,392.206390 228.753677,396.531250 221.324753,401.011353 
	C219.675186,400.084290 217.721481,399.259369 217.151779,397.867798 
	C215.834854,394.651154 215.188507,391.159973 214.147629,387.328949 
	C217.026642,385.393219 220.191116,383.265564 223.675903,380.985474 
	C230.005157,376.722229 235.668518,371.896149 242.150421,368.764191 
	C246.148834,366.832214 251.395111,367.482727 256.539246,366.903076 
	C261.092651,366.832367 265.188019,366.832367 270.627655,366.832367 
	C267.897644,369.147888 266.060089,370.706421 263.734467,372.631714 
	C256.485107,377.959503 249.723801,382.920532 242.962494,387.881561 
z"/>
<path fill="#FFFFFF" opacity="1.000000" stroke="none" 
	d="
M255.364960,460.093567 
	C245.514282,453.996338 239.148163,445.146027 233.837448,435.422119 
	C231.050934,430.320068 228.433273,425.125763 225.752747,419.998718 
	C231.987564,416.102844 237.877594,412.422424 244.265167,408.373047 
	C245.316330,407.697449 245.964310,407.490448 246.409241,407.069061 
	C251.996109,401.777863 257.735443,399.718201 263.952820,406.107056 
	C270.074188,409.976562 276.121307,413.971954 282.356720,417.648010 
	C284.574951,418.955750 285.783661,419.892120 284.198456,422.532806 
	C278.977051,431.230988 274.117676,440.155609 268.653961,448.695618 
	C265.523407,453.588776 261.832397,458.298798 255.364960,460.093567 
z"/>
<path fill="#027DA3" opacity="1.000000" stroke="none" 
	d="
M264.120911,405.715881 
	C257.735443,399.718201 251.996109,401.777863 246.409241,407.069061 
	C245.964310,407.490448 245.316330,407.697449 244.404938,408.056030 
	C243.693069,401.683167 243.338974,395.258331 242.973694,388.357544 
	C249.723801,382.920532 256.485107,377.959503 263.600098,372.945190 
	C264.302521,376.300964 264.954132,379.711487 264.937805,383.118805 
	C264.902374,390.521637 264.525970,397.922821 264.120911,405.715881 
z"/>
<path fill="#FFFFFF" opacity="1.000000" stroke="none" 
	d="
M264.099609,105.565094 
	C263.798187,105.906845 263.579712,105.874084 263.477722,105.967911 
	C256.630310,112.265518 251.071899,107.823746 245.356506,103.900299 
	C241.893372,101.522980 238.251022,99.406715 234.364471,97.027359 
	C231.382446,95.160942 228.725143,93.440331 225.635178,91.439575 
	C229.143631,84.796707 232.566650,78.315582 236.016983,71.473549 
	C238.774277,67.537971 241.484756,63.948101 244.247742,60.399120 
	C244.955139,59.490471 245.777649,58.654758 246.633499,57.880905 
	C256.170288,49.258007 255.623505,49.229813 264.650818,57.979233 
	C272.242645,68.970703 279.523651,79.823364 286.787659,90.650742 
	C278.548553,95.984581 271.392731,100.617126 264.099609,105.565094 
z"/>
<path fill="#FFFFFF" opacity="1.000000" stroke="none" 
	d="
M262.459656,315.094177 
	C254.861084,315.112335 247.664185,314.455994 240.607086,315.173981 
	C233.872833,315.859070 229.415649,312.786255 225.116058,308.605927 
	C222.619385,306.178497 220.190689,303.681152 217.425568,301.089111 
	C211.057205,294.444153 204.910202,288.000244 199.005066,281.341827 
	C197.854431,280.044434 197.105072,277.919128 197.085495,276.165497 
	C196.931534,262.372406 196.946823,248.576340 197.070877,234.782639 
	C197.085541,233.151810 197.639435,231.147827 198.681183,229.968674 
	C203.591125,224.411163 208.758179,219.080811 214.283997,213.225220 
	C216.141373,211.703690 217.916626,210.887863 218.896591,209.507446 
	C226.340881,199.020966 236.325455,194.793564 249.415985,196.907562 
	C257.775848,196.987442 265.722931,197.183044 273.654327,196.914841 
	C277.261871,196.792847 280.345825,197.375595 283.308838,199.981827 
	C292.728180,209.120544 301.838623,218.114090 310.949066,227.107620 
	C316.583160,233.068008 314.913940,240.490540 314.979736,247.536896 
	C315.060547,256.190796 314.792145,264.853088 315.085785,273.497772 
	C315.233917,277.859497 313.839203,281.080597 310.659271,283.914459 
	C307.683716,286.566162 304.977722,289.520355 302.017456,292.651001 
	C294.750793,299.916321 287.860657,307.152039 280.323334,313.635376 
	C278.381836,315.305328 274.414001,314.744873 271.359497,314.958771 
	C268.559418,315.154846 265.735687,315.013153 262.459656,315.094177 
M273.768066,295.004242 
	C293.197113,285.996399 304.392731,263.263367 296.113007,241.106400 
	C291.670197,229.217270 284.166809,220.600571 271.489319,215.946014 
	C262.119812,211.758972 252.593933,211.799271 242.195160,214.988480 
	C241.555435,215.098633 240.856934,215.078812 240.284515,215.337753 
	C221.909622,223.649170 212.570053,237.490692 212.876587,258.071808 
	C213.131042,275.156952 226.794937,293.470306 244.732483,297.209381 
	C254.448364,300.258270 263.869537,299.337616 273.768066,295.004242 
z"/>
<path fill="#FFFFFF" opacity="1.000000" stroke="none" 
	d="
M264.534363,161.904205 
	C276.036957,162.547089 287.075775,163.261154 298.556396,163.904297 
	C309.374084,164.880264 319.749939,165.927185 330.561768,166.903748 
	C338.759735,168.221100 346.527679,169.576935 354.280823,171.012619 
	C357.269073,171.565979 360.223663,172.300842 363.595825,172.893372 
	C371.015869,174.523087 378.033691,176.212402 385.476776,178.004089 
	C384.074890,180.770538 383.041656,182.777710 382.036469,184.798828 
	C378.459930,191.990158 378.463562,191.991959 370.449951,190.930969 
	C360.306732,188.927979 350.576080,186.975174 340.421021,185.094849 
	C335.898193,184.445251 331.811829,183.643265 327.698181,183.021667 
	C322.758362,182.275192 317.795380,181.682373 311.979309,181.022827 
	C301.744049,180.402832 292.371857,179.783005 282.535706,179.092545 
	C275.177460,178.914230 268.283173,178.729813 261.388824,178.727737 
	C257.258209,178.726486 253.127548,179.010330 248.533203,179.095551 
	C236.711960,179.405670 225.354431,179.786301 213.996902,180.166931 
	C210.160309,180.425079 206.323715,180.683228 201.655167,180.997360 
	C202.505478,175.665298 203.151550,170.769226 204.182236,165.955505 
	C204.360703,165.122101 206.167969,164.637436 207.610565,163.912537 
	C216.025024,163.547653 224.051804,163.261917 232.538345,162.905029 
	C243.355606,162.547714 253.713120,162.261551 264.534363,161.904205 
z"/>
<path fill="#027AA1" opacity="1.000000" stroke="none" 
	d="
M213.997849,180.624786 
	C225.354431,179.786301 236.711960,179.405670 248.534332,179.552429 
	C248.998367,185.664536 248.997589,191.249252 248.996796,196.833954 
	C236.325455,194.793564 226.340881,199.020966 218.896591,209.507446 
	C217.916626,210.887863 216.141373,211.703690 214.423172,212.912643 
	C213.743790,211.004791 213.024643,208.957687 213.068634,206.927124 
	C213.255295,198.309631 213.668411,189.697021 213.997849,180.624786 
z"/>
<path fill="#FFFFFF" opacity="1.000000" stroke="none" 
	d="
M122.372429,297.092377 
	C117.790306,295.676514 113.584061,294.186340 108.823204,292.499664 
	C113.182930,285.846497 117.474670,279.297119 121.901947,272.433960 
	C123.295197,273.518921 124.578804,274.895294 125.806267,276.320007 
	C132.523407,284.116608 132.347366,289.113434 125.015625,296.390839 
	C124.530396,296.872467 123.516373,296.821350 122.372429,297.092377 
z"/>
<path fill="#0189A9" opacity="1.000000" stroke="none" 
	d="
M282.999664,179.163193 
	C292.371857,179.783005 301.744049,180.402832 311.558044,181.093918 
	C311.999939,194.280212 312.029083,207.395401 311.968262,220.510147 
	C311.959259,222.449677 311.525055,224.387222 311.118347,226.716644 
	C301.838623,218.114090 292.728180,209.120544 283.309235,199.524048 
	C283.000397,192.335144 283.000031,185.749161 282.999664,179.163193 
z"/>
<path fill="#FFFFFF" opacity="1.000000" stroke="none" 
	d="
M339.578613,202.903336 
	C342.170105,203.376236 344.341949,203.919830 346.909027,204.562363 
	C347.262177,210.639008 347.584991,216.989838 348.022400,223.332764 
	C348.200470,225.915573 348.390747,228.537323 348.985229,231.044189 
	C350.746765,238.472031 345.137573,242.595901 341.760529,247.726685 
	C340.966400,248.933151 340.077850,250.077469 339.097900,251.565460 
	C336.822845,253.361359 334.682587,254.842163 332.542358,256.322998 
	C332.783691,256.734802 333.025055,257.146637 333.266388,257.558441 
	C333.177124,256.363831 333.040283,255.170578 333.005951,253.974365 
	C332.660248,241.931931 332.424500,229.885345 331.953461,217.847946 
	C331.755737,212.796127 331.069916,207.763428 330.528625,201.880966 
	C333.928711,202.311600 336.543854,202.642822 339.578613,202.903336 
z"/>
<path fill="#FFFFFF" opacity="1.000000" stroke="none" 
	d="
M330.375488,384.221466 
	C329.714264,383.997284 329.438934,383.816956 329.150787,383.660187 
	C318.121582,377.660706 318.148895,377.669647 322.006409,365.414398 
	C323.314209,361.259491 326.719727,363.664886 329.564972,362.903656 
	C332.856720,362.469086 335.716248,362.104675 339.173615,361.664093 
	C337.320282,369.299683 335.500458,376.108521 334.076721,382.999176 
	C333.501282,385.784058 332.424316,385.319519 330.375488,384.221466 
z"/>
<path fill="#FFFFFF" opacity="1.000000" stroke="none" 
	d="
M232.602264,117.061615 
	C234.909912,118.683273 236.857956,120.246567 239.269241,122.181602 
	C237.272751,123.858223 235.251877,125.555328 233.096954,127.565620 
	C230.974747,129.204010 228.986588,130.529190 226.710709,132.046158 
	C222.641312,129.630310 218.374298,127.097153 213.752426,124.353333 
	C215.425217,119.320282 217.072479,114.364014 218.837036,109.054840 
	C223.551331,111.850021 227.897003,114.426643 232.602264,117.061615 
z"/>
<path fill="#FFFFFF" opacity="1.000000" stroke="none" 
	d="
M361.607483,114.905457 
	C371.382111,112.881714 380.765930,110.928757 390.574280,108.905014 
	C393.239868,109.234398 396.049591,108.944420 397.580933,110.206055 
	C399.582794,111.855286 401.655182,114.658638 401.819641,117.092354 
	C402.727295,130.524017 399.169861,143.257431 394.692810,155.769455 
	C394.369965,156.671677 394.168243,157.617249 393.726318,158.847412 
	C392.624725,159.535568 391.613190,160.390457 390.803650,160.229507 
	C382.476929,158.574142 374.182922,156.754318 365.458954,154.930145 
	C359.078583,154.250488 357.472717,150.648163 356.731842,145.014282 
	C355.747681,137.530029 353.231995,130.250259 351.442993,122.865990 
	C351.105469,121.472923 351.089142,120.002060 350.904663,118.392998 
	C354.530243,117.191704 357.873444,116.083984 361.607483,114.905457 
z"/>
<path fill="#FFFFFF" opacity="1.000000" stroke="none" 
	d="
M331.409485,149.093781 
	C328.147400,148.680969 325.297241,148.195389 322.355988,147.694275 
	C321.312683,143.011154 320.275024,138.353470 319.119873,133.168304 
	C323.173218,131.099747 327.440125,128.922211 331.872131,126.432587 
	C332.674255,126.419037 333.776917,126.606171 333.878967,127.032700 
	C335.657349,134.466019 337.313019,141.928680 339.152527,150.081406 
	C336.412933,149.685135 334.117157,149.353058 331.409485,149.093781 
z"/>
<path fill="#027AA1" opacity="1.000000" stroke="none" 
	d="
M243.999329,296.831757 
	C226.794937,293.470306 213.131042,275.156952 212.876587,258.071808 
	C212.570053,237.490692 221.909622,223.649170 240.284515,215.337753 
	C240.856934,215.078812 241.555435,215.098633 242.742264,215.330872 
	C243.524994,221.726242 243.760620,227.779205 243.679398,233.980698 
	C240.496338,236.980789 237.099472,239.470230 234.861099,242.750244 
	C227.442978,253.620331 229.719711,269.199951 244.026016,278.357910 
	C244.009293,284.832764 244.004303,290.832275 243.999329,296.831757 
z"/>
<path fill="#0184A6" opacity="1.000000" stroke="none" 
	d="
M272.136108,216.170029 
	C284.166809,220.600571 291.670197,229.217270 296.113007,241.106400 
	C304.392731,263.263367 293.197113,285.996399 273.244476,294.677429 
	C272.637360,291.924164 272.564026,289.497345 272.468079,287.071381 
	C272.307404,283.008423 272.132324,278.946075 272.092590,274.575043 
	C280.263977,266.613525 283.308319,257.560699 278.922729,247.031067 
	C277.288391,243.107086 274.321747,239.738007 271.973999,235.640121 
	C272.035614,228.832916 272.085876,222.501465 272.136108,216.170029 
z"/>
<path fill="#0283A6" opacity="1.000000" stroke="none" 
	d="
M282.535706,179.092545 
	C283.000031,185.749161 283.000397,192.335144 283.000336,199.378876 
	C280.345825,197.375595 277.261871,196.792847 273.654327,196.914841 
	C265.722931,197.183044 257.775848,196.987442 249.415985,196.907562 
	C248.997589,191.249252 248.998367,185.664536 248.998047,179.622940 
	C253.127548,179.010330 257.258209,178.726486 261.388824,178.727737 
	C268.283173,178.729813 275.177460,178.914230 282.535706,179.092545 
z"/>
<path fill="#027DA3" opacity="1.000000" stroke="none" 
	d="
M271.963287,274.883453 
	C272.132324,278.946075 272.307404,283.008423 272.468079,287.071381 
	C272.564026,289.497345 272.637360,291.924164 272.882935,294.728943 
	C263.869537,299.337616 254.448364,300.258270 244.365906,297.020569 
	C244.004303,290.832275 244.009293,284.832764 244.408661,278.416626 
	C254.565536,283.140656 263.484100,280.926636 271.963287,274.883453 
z"/>
<path fill="#027DA3" opacity="1.000000" stroke="none" 
	d="
M271.812744,216.058014 
	C272.085876,222.501465 272.035614,228.832916 271.610199,235.582184 
	C262.579224,229.952988 253.507019,229.137329 243.996246,233.832169 
	C243.760620,227.779205 243.524994,221.726242 243.122284,215.281830 
	C252.593933,211.799271 262.119812,211.758972 271.812744,216.058014 
z"/>
<path fill="#FFFFFF" opacity="1.000000" stroke="none" 
	d="
M243.679413,233.980698 
	C253.507019,229.137329 262.579224,229.952988 271.598816,236.057953 
	C274.321747,239.738007 277.288391,243.107086 278.922729,247.031067 
	C283.308319,257.560699 280.263977,266.613525 272.092590,274.575043 
	C263.484100,280.926636 254.565536,283.140656 244.420410,277.941223 
	C229.719711,269.199951 227.442978,253.620331 234.861099,242.750244 
	C237.099472,239.470230 240.496338,236.980789 243.679413,233.980698 
z"/>
</svg>